<svg width="58" height="49" viewBox="0 0 58 49" fill="none" xmlns="http://www.w3.org/2000/svg">
<g clip-path="url(#clip0_1_5083)">
<path d="M51.6133 48.0513C53.1127 48.0513 54.5506 47.4563 55.6108 46.3973C56.6711 45.3383 57.2667 43.9019 57.2667 42.4042V14.1689C57.2667 12.6712 56.6711 11.2349 55.6108 10.1758C54.5506 9.11681 53.1127 8.52186 51.6133 8.52186H29.2827C28.3372 8.53112 27.4045 8.30335 26.5699 7.8594C25.7354 7.41545 25.0256 6.76951 24.5056 5.98068L22.216 2.59245C21.7012 1.81166 21.0005 1.17074 20.1766 0.727212C19.3527 0.283685 18.4314 0.0514235 17.4955 0.0512695H6.38667C4.88731 0.0512695 3.44937 0.646226 2.38916 1.70525C1.32895 2.76428 0.733337 4.20064 0.733337 5.69833V42.4042C0.733337 43.9019 1.32895 45.3383 2.38916 46.3973C3.44937 47.4563 4.88731 48.0513 6.38667 48.0513H51.6133Z" fill="url(#paint0_linear_1_5083)"/>
<rect x="0.733215" y="11.7847" width="56.5333" height="36.2667" rx="5.33333" fill="url(#paint1_linear_1_5083)"/>
<path d="M31.6248 31.2061L30.9373 27.7691C30.9186 27.6755 30.8736 27.5893 30.8075 27.5206C30.7414 27.4518 30.657 27.4034 30.5643 27.3811L24.2423 25.7201C24.159 25.6999 24.072 25.7015 23.9895 25.7247C23.907 25.7479 23.8318 25.7919 23.7712 25.8525C23.7107 25.9131 23.6667 25.9882 23.6435 26.0707C23.6203 26.1532 23.6187 26.2403 23.6388 26.3236L25.2998 32.6456C25.3222 32.7383 25.3706 32.8226 25.4393 32.8887C25.5081 32.9548 25.5943 32.9999 25.6878 33.0186L29.1248 33.7061M23.7748 25.8561L27.4178 29.4991M30.4783 35.3526C30.3845 35.4463 30.2574 35.499 30.1248 35.499C29.9922 35.499 29.8651 35.4463 29.7713 35.3526L28.9783 34.5596C28.8846 34.4658 28.8319 34.3386 28.8319 34.2061C28.8319 34.0735 28.8846 33.9463 28.9783 33.8526L31.7713 31.0596C31.8651 30.9658 31.9922 30.9132 32.1248 30.9132C32.2574 30.9132 32.3845 30.9658 32.4783 31.0596L33.2713 31.8526C33.365 31.9463 33.4177 32.0735 33.4177 32.2061C33.4177 32.3386 33.365 32.4658 33.2713 32.5596L30.4783 35.3526ZM29.1248 30.2061C29.1248 30.7583 28.6771 31.2061 28.1248 31.2061C27.5725 31.2061 27.1248 30.7583 27.1248 30.2061C27.1248 29.6538 27.5725 29.2061 28.1248 29.2061C28.6771 29.2061 29.1248 29.6538 29.1248 30.2061Z" stroke="white" stroke-linecap="round" stroke-linejoin="round"/>
</g>
<defs>
<linearGradient id="paint0_linear_1_5083" x1="29" y1="0.0512695" x2="29" y2="48.0513" gradientUnits="userSpaceOnUse">
<stop stop-color="#9A8DEC"/>
<stop offset="0.704172" stop-color="#271886"/>
<stop offset="1" stop-color="#9A8DEC"/>
</linearGradient>
<linearGradient id="paint1_linear_1_5083" x1="28.9999" y1="11.7847" x2="28.9999" y2="48.0513" gradientUnits="userSpaceOnUse">
<stop stop-color="#9A8DEC"/>
<stop offset="1" stop-color="#8476D8"/>
</linearGradient>
<clipPath id="clip0_1_5083">
<rect width="56.5333" height="48" fill="white" transform="translate(0.733337 0.0512695)"/>
</clipPath>
</defs>
</svg>
