<svg width="58" height="49" viewBox="0 0 58 49" fill="none" xmlns="http://www.w3.org/2000/svg">
<g clip-path="url(#clip0_1_5027)">
<path d="M51.6133 48.0513C53.1127 48.0513 54.5506 47.4563 55.6108 46.3973C56.6711 45.3383 57.2667 43.9019 57.2667 42.4042V14.1689C57.2667 12.6712 56.6711 11.2349 55.6108 10.1758C54.5506 9.11681 53.1127 8.52186 51.6133 8.52186H29.2827C28.3372 8.53112 27.4045 8.30335 26.5699 7.8594C25.7354 7.41545 25.0256 6.76951 24.5056 5.98068L22.216 2.59245C21.7012 1.81166 21.0005 1.17074 20.1766 0.727212C19.3527 0.283685 18.4314 0.0514235 17.4955 0.0512695H6.38667C4.88731 0.0512695 3.44937 0.646226 2.38916 1.70525C1.32895 2.76428 0.733337 4.20064 0.733337 5.69833V42.4042C0.733337 43.9019 1.32895 45.3383 2.38916 46.3973C3.44937 47.4563 4.88731 48.0513 6.38667 48.0513H51.6133Z" fill="url(#paint0_linear_1_5027)"/>
<rect x="0.733215" y="11.7847" width="56.5333" height="36.2667" rx="5.33333" fill="url(#paint1_linear_1_5027)"/>
<g clip-path="url(#clip1_1_5027)">
<path d="M29.7498 25.4878V26.4878M29.7498 34.4878V35.4878M23.2498 31.9878H24.2498M23.2498 28.9878H24.2498M32.2498 31.9878H33.2498M32.2498 28.9878H33.2498M26.7498 25.4878V26.4878M26.7498 34.4878V35.4878M25.2498 26.4878H31.2498C31.8021 26.4878 32.2498 26.9355 32.2498 27.4878V33.4878C32.2498 34.0401 31.8021 34.4878 31.2498 34.4878H25.2498C24.6975 34.4878 24.2498 34.0401 24.2498 33.4878V27.4878C24.2498 26.9355 24.6975 26.4878 25.2498 26.4878ZM27.2498 28.9878H29.2498C29.5259 28.9878 29.7498 29.2117 29.7498 29.4878V31.4878C29.7498 31.7639 29.5259 31.9878 29.2498 31.9878H27.2498C26.9737 31.9878 26.7498 31.7639 26.7498 31.4878V29.4878C26.7498 29.2117 26.9737 28.9878 27.2498 28.9878Z" stroke="white" stroke-linecap="round" stroke-linejoin="round"/>
</g>
</g>
<defs>
<linearGradient id="paint0_linear_1_5027" x1="29" y1="0.0512695" x2="29" y2="48.0513" gradientUnits="userSpaceOnUse">
<stop stop-color="#9A8DEC"/>
<stop offset="0.704172" stop-color="#271886"/>
<stop offset="1" stop-color="#9A8DEC"/>
</linearGradient>
<linearGradient id="paint1_linear_1_5027" x1="28.9999" y1="11.7847" x2="28.9999" y2="48.0513" gradientUnits="userSpaceOnUse">
<stop stop-color="#9A8DEC"/>
<stop offset="1" stop-color="#8476D8"/>
</linearGradient>
<clipPath id="clip0_1_5027">
<rect width="56.5333" height="48" fill="white" transform="translate(0.733337 0.0512695)"/>
</clipPath>
<clipPath id="clip1_1_5027">
<rect width="12" height="12" fill="white" transform="translate(22.2499 24.4878)"/>
</clipPath>
</defs>
</svg>
