<svg width="28" height="29" viewBox="0 0 28 29" fill="none" xmlns="http://www.w3.org/2000/svg">
<rect y="0.551392" width="28" height="28" rx="14" fill="#2A3869"/>
<path d="M11.893 19.0822C11.6824 19.4878 11.4421 19.8731 11.1784 20.2381C10.9663 20.5738 10.5827 20.5852 10.3763 20.5222L10.3763 20.5222C9.17842 20.151 7.9642 19.59 6.70699 18.6717C6.50903 18.5409 6.41171 18.3332 6.39594 18.1412C6.13731 15.3871 6.67053 12.5946 8.57269 9.74835L8.60916 9.69378L8.65557 9.64738C8.65579 9.64716 8.66513 9.63773 8.67601 9.62753C8.68714 9.6171 8.70842 9.59769 8.73697 9.57628C8.75998 9.55903 8.81532 9.51885 8.89751 9.48635C9.83473 9.05589 10.8336 8.74325 11.8798 8.56191L11.9363 8.55211H11.9936C12.0713 8.55211 12.168 8.56418 12.2696 8.6048C12.3588 8.64047 12.5182 8.72628 12.6222 8.91327C12.6803 9.01465 12.7409 9.12705 12.7994 9.24225C13.5977 9.15763 14.4027 9.15762 15.201 9.24223C15.2571 9.12905 15.3145 9.01827 15.3684 8.91954L15.4052 8.85204L15.4564 8.7947C15.5272 8.71546 15.6145 8.6527 15.7121 8.61084L11.893 19.0822ZM11.893 19.0822C13.2823 19.4207 14.7043 19.4222 16.0869 19.0858M11.893 19.0822L16.0869 19.0858M16.0869 19.0858C16.3073 19.4996 16.5527 19.8924 16.8165 20.2644L16.9426 20.4423L17.1495 20.5112C17.1496 20.5113 17.21 20.5329 17.2807 20.5447C17.3602 20.558 17.4818 20.5651 17.6199 20.5216C18.8239 20.1502 20.0374 19.5893 21.2936 18.6717C21.4911 18.5413 21.5884 18.3343 21.6045 18.1427C21.9121 14.959 21.0844 12.1876 19.4252 9.74425L19.3897 9.69203L19.3451 9.64739C19.3446 9.64691 19.3439 9.64621 19.343 9.64529C19.326 9.62777 19.2347 9.53365 19.0801 9.47872L16.0869 19.0858ZM12.2737 15.073L12.2736 15.073V15.0788C12.2736 15.5663 11.9407 15.8254 11.6803 15.8254C11.4289 15.8254 11.087 15.5615 11.087 15.0788C11.087 14.5913 11.4199 14.3321 11.6803 14.3321C11.948 14.3321 12.2778 14.5977 12.2737 15.073ZM16.9203 15.073H16.9203V15.0788C16.9203 15.5687 16.5919 15.8254 16.327 15.8254C16.0756 15.8254 15.7336 15.5615 15.7336 15.0788C15.7336 14.5913 16.0666 14.3321 16.327 14.3321C16.5947 14.3321 16.9244 14.5977 16.9203 15.073Z" stroke="#9A8DEC" stroke-width="1.33333"/>
</svg>
