<svg width="28" height="29" viewBox="0 0 28 29" fill="none" xmlns="http://www.w3.org/2000/svg">
<rect y="0.551392" width="28" height="28" rx="14" fill="#2A3869"/>
<path d="M11.2667 19.8847C12.5391 20.5374 14.0027 20.7142 15.3939 20.3832C16.7851 20.0523 18.0124 19.2353 18.8545 18.0795C19.6966 16.9237 20.0983 15.5052 19.9871 14.0795C19.8758 12.6538 19.2591 11.3147 18.2479 10.3035C17.2367 9.29233 15.8976 8.67555 14.4719 8.56433C13.0462 8.4531 11.6276 8.85475 10.4719 9.69688C9.31611 10.539 8.49913 11.7663 8.16815 13.1575C7.83717 14.5487 8.01396 16.0123 8.66667 17.2847L7.33333 21.218L11.2667 19.8847Z" stroke="#9A8DEC" stroke-width="1.33333" stroke-linecap="round" stroke-linejoin="round"/>
</svg>
