<svg width="28" height="26" viewBox="0 0 28 26" fill="none" xmlns="http://www.w3.org/2000/svg">
<path d="M0 9.38047L0.877909 7.85496L4.77812 1.11246L5.26026 0.270546H24.2864L22.1276 4.01238H7.41905L4.32478 9.38047L7.39746 14.7054H13.9242C14.3338 14.1145 14.9224 13.6709 15.6032 13.44C16.2841 13.2091 17.0211 13.2032 17.7056 13.423C18.3901 13.6428 18.9858 14.0768 19.4049 14.661C19.824 15.2451 20.0442 15.9485 20.0331 16.6673C20.0221 17.3862 19.7802 18.0824 19.3434 18.6534C18.9065 19.2243 18.2977 19.6397 17.6067 19.8384C16.9158 20.037 16.1793 20.0083 15.5059 19.7565C14.8324 19.5048 14.2578 19.0432 13.8666 18.44H5.23147L4.77093 17.6485L1.05061 11.1722L0 9.38047Z" fill="#8A78FB"/>
<path d="M28 16.6267L27.1221 18.145L23.2219 24.8875L22.7326 25.7295H3.72802L5.88681 21.9948H20.581L23.6752 16.6267L20.6026 11.3018H14.0758C13.6674 11.8935 13.0797 12.3382 12.3993 12.5704C11.7189 12.8027 10.9818 12.8101 10.2969 12.5916C9.61198 12.373 9.01541 11.9402 8.5952 11.3569C8.17499 10.7735 7.95339 10.0706 7.96309 9.35171C7.97278 8.63284 8.21326 7.93613 8.64905 7.36434C9.08484 6.79254 9.69287 6.37594 10.3834 6.17598C11.074 5.97602 11.8106 6.0033 12.4845 6.25379C13.1584 6.50427 13.7339 6.96471 14.1262 7.56717H22.7614L23.2219 8.35871L26.9422 14.7918L28 16.6267Z" fill="white"/>
</svg>
