<svg width="249" height="38" viewBox="0 0 249 38" fill="none" xmlns="http://www.w3.org/2000/svg">
<path d="M0.959375 37V26.236C0.959375 20.308 5.74338 15.524 11.6714 15.524H20.3554C25.9714 15.524 25.9714 6.944 20.3554 6.944H0.959375V0.495999H20.3554C26.2834 0.495999 31.0674 5.28 31.0674 11.208C31.0674 16.72 26.9594 21.244 21.6034 21.868V21.972H11.6714C9.27938 21.972 7.40738 23.896 7.40738 26.236V37H0.959375ZM58.384 21.192L66.808 37H59.528L55.94 30.136C53.964 26.756 52.04 21.972 49.908 21.972H45.644C43.304 21.972 41.38 23.896 41.38 26.236V37H34.932V26.236C34.932 20.308 39.716 15.524 45.644 15.524H54.328C59.996 15.524 59.996 6.944 54.328 6.944H34.932V0.495999H54.328C66.08 0.495999 69.2 16.772 58.384 21.192ZM86.7082 0.131997C96.9522 0.131997 105.324 8.452 105.324 18.748C105.324 28.992 96.9522 37.364 86.7082 37.364C76.4122 37.364 68.0922 28.992 68.0922 18.748C68.0922 8.452 76.4122 0.131997 86.7082 0.131997ZM86.7082 30.916C93.3642 30.916 98.8762 25.352 98.8762 18.696C98.8762 12.04 93.3642 6.58 86.7082 6.58C80.0522 6.58 74.5402 12.04 74.5402 18.696C74.5402 25.352 80.0522 30.916 86.7082 30.916ZM140.633 37H127.373C117.337 36.896 109.225 28.784 109.225 18.748C109.225 8.66 117.389 0.495999 127.425 0.495999H140.633V6.944H127.425C120.925 6.944 115.673 12.196 115.673 18.748C115.673 25.248 120.925 30.552 127.425 30.552H140.633V37ZM174.656 37H161.396C151.36 36.896 143.248 28.784 143.248 18.748C143.248 8.66 151.412 0.495999 161.5 0.495999H174.656V6.944H161.5C155 6.944 149.696 12.196 149.696 18.748C149.696 25.248 155 30.552 161.5 30.552H174.656V37ZM169.664 21.972H157.548V15.524H169.664V21.972ZM189.253 0.495999H208.441V6.944H189.253C183.637 6.944 183.637 15.524 189.253 15.524H201.213C207.141 15.524 211.977 20.308 211.977 26.236C211.977 32.164 207.141 37 201.213 37H181.037V30.552H201.213C206.881 30.552 206.881 21.972 201.213 21.972H188.993C183.169 21.816 178.541 17.084 178.541 11.208C178.541 5.28 183.325 0.495999 189.253 0.495999ZM225.308 0.495999H244.496V6.944H225.308C219.692 6.944 219.692 15.524 225.308 15.524H237.268C243.196 15.524 248.032 20.308 248.032 26.236C248.032 32.164 243.196 37 237.268 37H217.092V30.552H237.268C242.936 30.552 242.936 21.972 237.268 21.972H225.048C219.224 21.816 214.596 17.084 214.596 11.208C214.596 5.28 219.38 0.495999 225.308 0.495999Z" fill="white"/>
</svg>
