<svg width="262" height="37" viewBox="0 0 262 37" fill="none" xmlns="http://www.w3.org/2000/svg">
<path d="M24.2747 21.192L32.6987 37H25.4187L21.8307 30.136C19.8547 26.756 17.9307 21.972 15.7987 21.972H11.5347C9.19466 21.972 7.27066 23.896 7.27066 26.236V37H0.822656V26.236C0.822656 20.308 5.60666 15.524 11.5347 15.524H20.2187C25.8867 15.524 25.8867 6.944 20.2187 6.944H0.822656V0.495999H20.2187C31.9707 0.495999 35.0907 16.772 24.2747 21.192ZM66.7111 37H53.4511C43.4151 36.896 35.3031 28.784 35.3031 18.748C35.3031 8.66 43.4671 0.495999 53.5551 0.495999H66.7111V6.944H53.5551C47.0551 6.944 41.7511 12.196 41.7511 18.748C41.7511 25.248 47.0551 30.552 53.5551 30.552H66.7111V37ZM61.7191 21.972H49.6031V15.524H61.7191V21.972ZM94.2866 22.024H83.8866V15.576H94.2866C100.215 15.576 104.999 20.36 104.999 26.288C104.999 32.216 100.215 37 94.2866 37H87.4746C77.4386 36.948 69.3266 28.836 69.3266 18.8C69.3266 8.712 77.4906 0.547998 87.5786 0.547998H100.735V6.996H87.5786C81.0266 6.996 75.7746 12.248 75.7746 18.8C75.7746 25.3 81.0266 30.552 87.5786 30.552H94.2866C99.9546 30.552 99.9546 22.024 94.2866 22.024ZM110.205 37V0.547998H116.653V37H110.205ZM132.546 0.495999H151.734V6.944H132.546C126.93 6.944 126.93 15.524 132.546 15.524H144.506C150.434 15.524 155.27 20.308 155.27 26.236C155.27 32.164 150.434 37 144.506 37H124.33V30.552H144.506C150.174 30.552 150.174 21.972 144.506 21.972H132.286C126.462 21.816 121.834 17.084 121.834 11.208C121.834 5.28 126.618 0.495999 132.546 0.495999ZM169.745 37V6.944H157.889V0.495999H188.101V6.944H176.193V37H169.745ZM222.102 37H208.842C198.806 36.896 190.694 28.784 190.694 18.748C190.694 8.66 198.858 0.495999 208.946 0.495999H222.102V6.944H208.946C202.446 6.944 197.142 12.196 197.142 18.748C197.142 25.248 202.446 30.552 208.946 30.552H222.102V37ZM217.11 21.972H204.994V15.524H217.11V21.972ZM250.759 21.192L259.183 37H251.903L248.315 30.136C246.339 26.756 244.415 21.972 242.283 21.972H238.019C235.679 21.972 233.755 23.896 233.755 26.236V37H227.307V26.236C227.307 20.308 232.091 15.524 238.019 15.524H246.703C252.371 15.524 252.371 6.944 246.703 6.944H227.307V0.495999H246.703C258.455 0.495999 261.575 16.772 250.759 21.192Z" fill="white"/>
</svg>
