<svg width="44" height="44" viewBox="0 0 44 44" fill="none" xmlns="http://www.w3.org/2000/svg">
<rect width="44" height="44" rx="22" fill="#000720"/>
<path d="M7.99973 17.8806L8.87764 16.3551L12.7779 9.61256L13.26 8.77065H32.2861L30.1273 12.5125H15.4188L12.3245 17.8806L15.3972 23.2055H21.9239C22.3335 22.6146 22.9221 22.171 23.6029 21.9401C24.2838 21.7092 25.0208 21.7033 25.7053 21.9231C26.3898 22.1429 26.9856 22.5769 27.4046 23.1611C27.8237 23.7452 28.044 24.4486 28.0329 25.1674C28.0218 25.8863 27.78 26.5825 27.3431 27.1535C26.9062 27.7244 26.2974 28.1398 25.6064 28.3385C24.9155 28.5371 24.179 28.5084 23.5056 28.2566C22.8322 28.0049 22.2575 27.5433 21.8664 26.9401H13.2312L12.7707 26.1486L9.05034 19.6723L7.99973 17.8806Z" fill="#8A78FB"/>
<path d="M36 25.1268L35.1221 26.6451L31.2219 33.3876L30.7326 34.2295H11.728L13.8868 30.4949H28.581L31.6752 25.1268L28.6025 19.8018H22.0758C21.6674 20.3935 21.0796 20.8383 20.3992 21.0705C19.7188 21.3027 18.9818 21.3101 18.2969 21.0916C17.612 20.8731 17.0154 20.4402 16.5952 19.8569C16.175 19.2736 15.9534 18.5706 15.9631 17.8517C15.9728 17.1329 16.2132 16.4362 16.649 15.8644C17.0848 15.2926 17.6928 14.876 18.3834 14.676C19.074 14.4761 19.8105 14.5033 20.4844 14.7538C21.1583 15.0043 21.7339 15.4647 22.1262 16.0672H30.7613L31.2219 16.8587L34.9422 23.2918L36 25.1268Z" fill="white"/>
</svg>
