<svg width="212" height="31" viewBox="0 0 212 31" fill="none" xmlns="http://www.w3.org/2000/svg">
<path d="M24.6457 5.37983L24.6156 2.71995L24.5856 0.0600626L16.8537 0.0516587C12.6012 0.0469523 8.64277 0.0796723 8.05728 0.124159C6.56715 0.237448 5.81615 0.352194 5.81615 0.466491C5.81615 0.520278 5.66487 0.564317 5.47998 0.564317C5.29508 0.564317 5.14381 0.614742 5.14381 0.676373C5.14381 0.738004 5.01775 0.788429 4.86367 0.788429C4.70959 0.788429 4.58353 0.838855 4.58353 0.900486C4.58353 0.962117 4.51058 1.01254 4.42138 1.01254C4.24489 1.01254 3.22888 1.5271 3.13105 1.66594C3.09788 1.71312 2.89428 1.8737 2.67857 2.02273C2.19359 2.358 2.13431 2.41695 1.72261 2.97353C1.54041 3.22005 1.36571 3.44697 1.33456 3.47778C1.27965 3.53202 1.10709 3.82908 0.895076 4.23417C0.650009 4.70234 0.446402 5.25007 0.342974 5.71891C0.281791 5.99625 0.172648 6.50051 0.100372 6.83948C-0.136515 7.95007 0.0722458 11.1138 0.451445 12.1622C0.675222 12.7806 1.25422 13.899 1.3507 13.899C1.40303 13.899 1.44595 13.9654 1.44595 14.0465C1.44595 14.3914 3.40951 16.1402 3.79678 16.1402C3.85964 16.1402 3.91119 16.1906 3.91119 16.2522C3.91119 16.3139 4.01204 16.3643 4.1353 16.3643C4.25856 16.3643 4.35941 16.4147 4.35941 16.4763C4.35941 16.538 4.45018 16.5884 4.56111 16.5884C4.67205 16.5884 4.81078 16.6301 4.86927 16.6809C5.01181 16.8049 5.69098 17.0025 6.7126 17.2171C7.3744 17.3562 8.73186 17.4114 13.0998 17.4769C17.2265 17.5387 18.7327 17.597 18.9828 17.7047C20.3396 18.2886 20.7357 18.6055 21.1743 19.4582C21.4138 19.924 21.4469 20.1315 21.4388 21.1188C21.4315 22.0251 21.3813 22.355 21.1841 22.7949C20.7588 23.7435 19.5399 24.6565 18.6987 24.6565C18.4616 24.6565 18.2365 24.7069 18.1984 24.7685C18.1531 24.8417 15.0783 24.8806 9.33931 24.8806H0.549494V27.5699V30.2593H8.96023C14.0837 30.2593 17.7955 30.2132 18.457 30.1414C19.9416 29.9801 21.2368 29.7146 21.8402 29.4478C22.1176 29.3251 22.5095 29.1519 22.7113 29.0631C23.1832 28.8553 24.519 27.8493 24.8097 27.4829C24.933 27.3274 25.1473 27.084 25.286 26.942C25.4247 26.7999 25.5381 26.6057 25.5381 26.5104C25.5381 26.4152 25.5823 26.3373 25.6364 26.3373C25.7346 26.3373 26.1479 25.4579 26.3474 24.8245C26.991 22.7798 27.0604 20.7762 26.5664 18.4933C26.3487 17.487 25.8586 16.337 25.5101 16.015C25.4022 15.9153 25.314 15.7983 25.314 15.7548C25.314 15.7114 25.2475 15.6095 25.1663 15.5282C25.0849 15.447 24.8959 15.2362 24.7461 15.0599C24.4208 14.6774 23.4966 14.0047 22.9888 13.7808C22.7886 13.6925 22.6246 13.5821 22.6246 13.5355C22.6246 13.4889 22.5238 13.4508 22.4005 13.4508C22.2772 13.4508 22.1764 13.4004 22.1764 13.3388C22.1764 13.2771 22.0786 13.2267 21.9589 13.2267C21.8392 13.2267 21.7137 13.1819 21.6798 13.127C21.6459 13.0722 21.4538 12.999 21.2529 12.9644C21.0521 12.9297 20.3835 12.8002 19.7672 12.6766C18.7506 12.4728 18.1919 12.4515 13.7457 12.4471C9.05335 12.4425 8.17112 12.3918 7.5826 12.0929C7.47559 12.0386 7.31165 11.9941 7.21842 11.9941C7.12508 11.9941 7.04877 11.9436 7.04877 11.882C7.04877 11.8204 6.96719 11.77 6.86746 11.77C6.63214 11.77 5.81615 10.954 5.81615 10.7186C5.81615 10.6189 5.76572 10.5373 5.70409 10.5373C5.64246 10.5373 5.59203 10.4395 5.59203 10.3198C5.59203 10.2002 5.54161 10.0712 5.47998 10.0331C5.33363 9.94266 5.33363 7.88239 5.47998 7.79196C5.54161 7.75386 5.59203 7.59967 5.59203 7.44918C5.59203 7.29868 5.64246 7.17565 5.70409 7.17565C5.76572 7.17565 5.81615 7.11054 5.81615 7.03087C5.81615 6.60584 6.95823 5.78402 7.88919 5.53917C8.07408 5.49054 11.92 5.43474 16.4355 5.41524L24.6457 5.37983Z" fill="white"/>
<path d="M37.9782 12.8081L37.9492 6.43406L37.9203 0.0600626L35.259 0.0300317L32.5976 0V15.1296V30.2593H35.219C37.5059 30.2593 37.8489 30.2366 37.9083 30.082C37.9458 29.9845 37.9763 27.1338 37.9763 23.7471V17.5895L40.8058 17.6417C43.9336 17.6993 45.2617 17.7857 45.4225 17.9418C45.481 17.9986 45.6281 18.0451 45.7494 18.0451C46.284 18.0451 48.1735 19.3662 48.1735 19.7399C48.1735 19.785 48.2366 19.8906 48.3136 19.9744C48.5498 20.2313 49.144 21.3505 51.1869 25.3848C51.7174 26.4325 52.1767 27.315 52.2075 27.3458C52.2383 27.3766 52.5123 27.9061 52.8162 28.5224C53.1202 29.1387 53.464 29.7817 53.5803 29.9511L53.7915 30.2593H56.6974C59.0738 30.2593 59.6032 30.2315 59.6032 30.1068C59.6032 30.0228 59.3759 29.5312 59.098 29.0142C58.8201 28.4972 58.3817 27.6456 58.1239 27.1217C57.8659 26.5978 57.6269 26.144 57.5925 26.1132C57.4843 26.0158 56.4657 23.9135 56.4657 23.7872C56.4657 23.7209 56.4279 23.6499 56.3816 23.6292C56.3353 23.6087 56.0959 23.1885 55.8493 22.6955C55.6028 22.2024 55.3634 21.7822 55.3171 21.7617C55.2708 21.7411 55.233 21.6547 55.233 21.5695C55.233 21.4844 55.1009 21.1734 54.9393 20.8785C54.1846 19.5006 53.9509 19.1069 53.867 19.0723C53.8171 19.0517 53.7763 18.9383 53.7763 18.8202C53.7763 18.7021 53.7259 18.6054 53.6642 18.6054C53.6026 18.6054 53.5522 18.5298 53.5522 18.4373C53.5522 18.3449 53.5126 18.2692 53.4643 18.2692C53.4159 18.2692 53.2806 18.1054 53.1636 17.9051C52.6198 16.9746 50.324 15.1317 49.7088 15.1317C49.5147 15.1317 49.182 14.8889 49.182 14.7474C49.182 14.7122 49.2787 14.6834 49.3968 14.6834C49.5149 14.6834 49.6283 14.6456 49.6489 14.5994C49.6694 14.5532 49.8772 14.4181 50.1107 14.2993C50.3441 14.1805 50.684 13.9409 50.8661 13.767C51.0481 13.5931 51.2359 13.4508 51.2835 13.4508C51.331 13.4508 51.4702 13.3173 51.5927 13.1542C51.7151 12.991 51.9791 12.6786 52.1795 12.46C52.3799 12.2413 52.5437 11.9965 52.5437 11.9162C52.5437 11.8357 52.5862 11.77 52.6381 11.77C52.69 11.77 52.8275 11.5935 52.9437 11.3778C53.0599 11.1621 53.1816 10.9856 53.2141 10.9856C53.2467 10.9856 53.3447 10.8216 53.4318 10.6214C53.5189 10.4211 53.624 10.232 53.6653 10.2012C53.7064 10.1704 53.9878 9.64089 54.2905 9.02458C54.5932 8.40827 54.8786 7.88721 54.9249 7.8667C54.9712 7.84608 55.0089 7.73268 55.0089 7.61457C55.0089 7.49647 55.0593 7.39976 55.121 7.39976C55.1826 7.39976 55.233 7.3434 55.233 7.27448C55.233 7.10628 56.2749 5.00063 56.3816 4.95323C56.4279 4.93261 56.4657 4.82336 56.4657 4.7104C56.4657 4.59745 56.5034 4.4882 56.5497 4.46758C56.596 4.44707 56.8354 4.00165 57.082 3.47778C57.3285 2.95392 57.568 2.5085 57.6142 2.48799C57.6605 2.46737 57.6983 2.35397 57.6983 2.23586C57.6983 2.11776 57.7487 2.02105 57.8103 2.02105C57.872 2.02105 57.9224 1.92446 57.9224 1.80624C57.9224 1.68813 57.9602 1.57473 58.0064 1.55411C58.1055 1.51018 58.7068 0.273306 58.7068 0.113625C58.7068 -0.0150156 53.225 -0.0379869 53.0424 0.0897575C52.9777 0.135028 52.7261 0.575522 52.4833 1.06857C52.2405 1.56162 52.0035 1.98183 51.9565 2.00234C51.9097 2.02295 51.8713 2.13636 51.8713 2.25446C51.8713 2.37268 51.8209 2.46928 51.7593 2.46928C51.6977 2.46928 51.6472 2.52766 51.6472 2.59915C51.6472 2.77004 50.8312 4.41939 50.7228 4.46758C50.6765 4.4882 50.6387 4.59745 50.6387 4.7104C50.6387 4.82336 50.6004 4.93261 50.5536 4.95323C50.4455 5.00063 49.4061 7.10113 49.4061 7.27213C49.4061 7.34239 49.3557 7.39976 49.294 7.39976C49.2324 7.39976 49.182 7.49647 49.182 7.61457C49.182 7.73268 49.1442 7.84608 49.0979 7.8667C49.0517 7.88721 48.8882 8.15614 48.7344 8.4643C48.5807 8.77245 48.3915 9.09125 48.3142 9.1726C48.2368 9.25407 48.1735 9.41801 48.1735 9.53679C48.1735 9.65568 48.1354 9.75294 48.0888 9.75294C48.0421 9.75294 47.9319 9.91688 47.8436 10.1171C47.7553 10.3174 47.6294 10.5391 47.564 10.6098C47.4987 10.6805 47.2686 10.9686 47.0529 11.2499C46.8372 11.5313 46.6072 11.7634 46.5418 11.7657C46.4764 11.7681 46.3146 11.8708 46.1822 11.9941C46.05 12.1173 45.8489 12.2182 45.7354 12.2182C45.6218 12.2182 45.4811 12.2616 45.4225 12.3144C45.1541 12.557 43.7607 12.6931 40.9748 12.7484L37.9782 12.8081Z" fill="white"/>
<path d="M69.3521 30.2593V15.1317V0.00403438H66.7188H64.0855V15.1317V30.2593H66.7188H69.3521Z" fill="white"/>
<path d="M81.6784 20.6784C81.605 20.6331 81.5663 17.0541 81.5663 10.3066V0.00403438L79.017 0.0128871C77.6149 0.0177055 76.4048 0.0471764 76.3277 0.078216C76.1102 0.166068 76.1309 20.0006 76.3503 21.6309C76.5262 22.9385 76.7642 23.9373 77.0242 24.4582C77.1187 24.6478 77.1961 24.8708 77.1961 24.9538C77.1961 25.0368 77.2465 25.1047 77.3082 25.1047C77.3698 25.1047 77.4202 25.2055 77.4202 25.3288C77.4202 25.4521 77.4706 25.5529 77.5323 25.5529C77.5939 25.5529 77.6443 25.6208 77.6443 25.7038C77.6443 25.7869 77.7452 25.9711 77.8684 26.1132C77.9917 26.2553 78.094 26.4017 78.0957 26.4385C78.1005 26.5383 79.0759 27.5699 79.1655 27.5699C79.2081 27.5699 79.3244 27.6587 79.4241 27.7673C79.701 28.0688 80.348 28.522 80.7539 28.6987C80.9543 28.7858 81.1181 28.8953 81.1181 28.9419C81.1181 28.9886 81.2147 29.0267 81.3329 29.0267C81.451 29.0267 81.5644 29.0645 81.585 29.1109C81.6409 29.237 82.965 29.6566 83.9195 29.8506C85.5881 30.1899 87.7787 30.2779 93.6124 30.2402L99.3272 30.2032L99.3573 27.5419L99.3873 24.8806H93.0047C88.8705 24.8806 86.5976 24.8411 86.5528 24.7685C86.5147 24.7069 86.2122 24.6565 85.8805 24.6565C85.5488 24.6565 85.2462 24.606 85.2081 24.5444C85.17 24.4828 85.0403 24.4323 84.9198 24.4323C84.7994 24.4323 84.6132 24.3875 84.5062 24.3327C84.3992 24.2779 84.1111 24.1392 83.8658 24.0246C83.2892 23.7548 82.3222 22.7862 82.1389 22.2948C82.0602 22.0837 81.9496 21.8236 81.8932 21.7165C81.8366 21.6095 81.7904 21.3478 81.7904 21.1349C81.7904 20.9219 81.74 20.7165 81.6784 20.6784Z" fill="white"/>
<path d="M108.674 21.4628C108.486 21.2061 108.437 19.1806 108.393 9.83699L108.345 0.00403438H105.766C103.687 0.00403438 103.175 0.033841 103.127 0.157215C103.095 0.241482 103.086 5.19583 103.107 11.1668L103.146 22.0231L103.462 23.1953C103.766 24.3193 104.471 25.8724 104.934 26.4369C105.63 27.2838 106.739 28.2681 107.255 28.4967C107.425 28.5717 107.563 28.6712 107.563 28.7178C107.563 28.7644 107.639 28.8025 107.731 28.8025C107.824 28.8025 107.9 28.853 107.9 28.9146C107.9 28.9762 107.976 29.0267 108.069 29.0267C108.162 29.0267 108.326 29.0711 108.433 29.1256C109.038 29.4332 110.093 29.7466 111.093 29.916C112.701 30.1882 114.589 30.2596 120.186 30.2594C125.512 30.2593 126.148 30.2406 126.209 30.082C126.246 29.9845 126.277 28.7743 126.277 27.3926V24.8806H119.834C115.613 24.8806 113.39 24.8419 113.39 24.7685C113.39 24.7062 113.091 24.6565 112.718 24.6565C112.345 24.6565 112.046 24.6067 112.046 24.5444C112.046 24.4828 111.942 24.4323 111.814 24.4323C110.979 24.4323 109.202 22.9884 108.914 22.075C108.827 21.7999 108.719 21.5245 108.674 21.4628Z" fill="white"/>
<path d="M154.291 5.37983V2.69193V0.00403438L146.587 0.0228598C138.172 0.0433661 135.577 0.148027 135.577 0.466827C135.577 0.520502 135.429 0.564317 135.248 0.564317C135.067 0.564317 134.887 0.614742 134.849 0.676373C134.811 0.738004 134.682 0.788429 134.562 0.788429C134.443 0.788429 134.345 0.83258 134.345 0.886479C134.345 0.940378 134.206 1.01254 134.037 1.04683C133.339 1.1878 131.216 2.88904 131.209 3.31295C131.208 3.37637 131.106 3.50098 130.983 3.58984C130.86 3.6787 130.759 3.81115 130.759 3.8841C130.759 3.95716 130.662 4.21075 130.543 4.44763C130.246 5.04019 129.975 5.92039 129.975 6.29253C129.975 6.46286 129.924 6.63329 129.863 6.67139C129.795 6.7133 129.751 7.51081 129.751 8.68841C129.751 9.86601 129.795 10.6635 129.863 10.7054C129.924 10.7435 129.975 10.9452 129.975 11.1535C129.975 11.5675 130.502 13.1478 130.661 13.208C130.715 13.2286 130.759 13.342 130.759 13.4601C130.759 13.5782 130.809 13.6749 130.871 13.6749C130.933 13.6749 130.983 13.7423 130.983 13.8247C130.983 14.183 133.16 16.1402 133.558 16.1402C133.621 16.1402 133.673 16.1906 133.673 16.2522C133.673 16.3139 133.773 16.3643 133.897 16.3643C134.02 16.3643 134.121 16.4147 134.121 16.4763C134.121 16.538 134.212 16.5884 134.322 16.5884C134.433 16.5884 134.572 16.6301 134.631 16.6809C134.773 16.8049 135.452 17.0025 136.474 17.2171C137.139 17.357 138.475 17.4098 142.887 17.4705C147.039 17.5276 148.494 17.5821 148.596 17.6841C148.671 17.7594 148.849 17.821 148.991 17.821C149.132 17.821 149.248 17.8714 149.248 17.9331C149.248 17.9947 149.323 18.0451 149.415 18.0451C149.507 18.0451 149.671 18.1173 149.779 18.2055C149.888 18.2936 150.141 18.4997 150.341 18.6637C150.541 18.8275 150.705 19.0327 150.705 19.1196C150.705 19.2066 150.745 19.2777 150.793 19.2777C150.948 19.2777 151.189 20.3049 151.2 21.0062C151.21 21.7296 150.957 22.9756 150.799 22.9756C150.747 22.9756 150.705 23.0535 150.705 23.1487C150.705 23.4483 149.559 24.4323 149.21 24.4323C149.108 24.4323 149.024 24.4828 149.024 24.5444C149.024 24.606 148.8 24.6565 148.527 24.6565C148.253 24.6565 147.998 24.7069 147.96 24.7685C147.914 24.8417 144.821 24.8806 139.045 24.8806H130.199V27.3926C130.199 28.7743 130.229 29.9845 130.267 30.082C130.328 30.2415 131.17 30.2593 138.643 30.259C148.882 30.2588 150.315 30.1481 152.025 29.2251C152.227 29.116 152.467 29.0267 152.557 29.0267C152.648 29.0267 152.722 28.9762 152.722 28.9146C152.722 28.853 152.785 28.8019 152.862 28.8011C153.006 28.7995 153.321 28.5692 154.045 27.9367C154.273 27.7378 154.497 27.574 154.543 27.5725C154.589 27.571 154.627 27.5054 154.627 27.4266C154.627 27.3477 154.728 27.2106 154.851 27.1217C154.974 27.0328 155.075 26.8957 155.075 26.8168C155.075 26.738 155.126 26.6735 155.187 26.6735C155.249 26.6735 155.299 26.5978 155.299 26.5054C155.299 26.4129 155.35 26.3373 155.411 26.3373C155.473 26.3373 155.524 26.2364 155.524 26.1132C155.524 25.9899 155.572 25.8891 155.631 25.8891C155.689 25.8891 155.771 25.7126 155.811 25.4969C155.852 25.2812 155.93 25.1047 155.984 25.1047C156.039 25.1047 156.084 24.9534 156.084 24.7685C156.084 24.5836 156.134 24.4323 156.196 24.4323C156.258 24.4323 156.308 24.2054 156.308 23.9281C156.308 23.6507 156.361 23.4238 156.425 23.4238C156.573 23.4238 156.502 19.4383 156.341 18.7175C156.179 17.996 155.755 16.8388 155.481 16.372C154.899 15.3805 153.725 14.26 152.807 13.8198C152.577 13.7093 152.388 13.581 152.387 13.5349C152.387 13.4887 152.288 13.4508 152.168 13.4508C152.049 13.4508 151.92 13.4004 151.882 13.3388C151.844 13.2771 151.715 13.2267 151.595 13.2267C151.475 13.2267 151.377 13.1818 151.377 13.1269C151.377 13.0721 151.214 12.9994 151.013 12.9657C150.813 12.932 150.296 12.8179 149.865 12.7122C149.207 12.5512 148.2 12.5066 143.646 12.4373C138.336 12.3564 137.258 12.2985 137.258 12.0944C137.258 12.0392 137.158 11.9941 137.034 11.9941C136.911 11.9941 136.81 11.9436 136.81 11.882C136.81 11.8204 136.728 11.77 136.627 11.77C136.369 11.77 135.353 10.7081 135.353 10.4382C135.353 10.3151 135.303 10.1832 135.241 10.1451C135.178 10.1058 135.129 9.54631 135.129 8.84988C135.129 8.10728 135.173 7.62387 135.241 7.62387C135.303 7.62387 135.353 7.53255 135.353 7.42094C135.353 7.30922 135.454 7.10964 135.577 6.97731C135.701 6.84508 135.802 6.70042 135.802 6.65604C135.802 6.49502 136.619 5.83097 136.818 5.83097C136.929 5.83097 137.049 5.78615 137.083 5.73124C137.226 5.49861 138.398 5.45838 146.139 5.42017L154.291 5.37983Z" fill="white"/>
<path d="M174.237 8.4569C174.237 5.22878 174.196 3.38646 174.121 3.24628C174.015 3.04794 173.873 3.02956 172.44 3.02956H170.875V8.24018V13.4508H165.665H160.454V15.1317V16.8125H165.539C169.7 16.8125 170.647 16.8403 170.751 16.9656C170.844 17.0774 170.858 18.3821 170.803 21.8173C170.761 24.4016 170.762 26.6523 170.804 26.8189L170.88 27.1217H172.502H174.125V24.6746C174.125 23.3287 174.158 21.0091 174.199 19.52L174.273 16.8125H179.41H184.546V15.1317V13.4508H179.392H174.237V8.4569Z" fill="white"/>
<path d="M201.579 13.4508V8.24018V3.02956H200.032C198.979 3.02956 198.443 3.07248 198.352 3.16403C198.251 3.26465 198.217 4.57594 198.217 8.37465V13.4508H193.062H187.908V15.1317V16.8125H193.061H198.215L198.244 21.9391L198.273 27.0657L199.926 27.0967L201.579 27.1276V22.0381C201.579 17.5004 201.598 16.9411 201.756 16.8805C201.854 16.8431 204.198 16.8125 206.967 16.8125H212V15.1317V13.4508H206.789H201.579Z" fill="white"/>
</svg>
