<svg width="20" height="21" viewBox="0 0 20 21" fill="none" xmlns="http://www.w3.org/2000/svg">
<path d="M8.3875 11.2351L3.2375 12.3334C3.0376 12.3768 2.82866 12.3397 2.65587 12.2303C2.48308 12.1208 2.36033 11.9477 2.31417 11.7484L1.86667 9.95673C1.81406 9.74087 1.84393 9.51313 1.95045 9.31814C2.05696 9.12315 2.23244 8.97495 2.4425 8.90257L13.6958 5.20257M11.3 10.6134L14.91 9.8434M13.3333 18.3242L10.7458 13.1492M5.13167 8.0184L6.06 11.7317M6.66667 18.3242L9.25417 13.1492M13.7375 5.77423C13.6304 5.34547 13.6979 4.89172 13.9253 4.51275C14.1527 4.13379 14.5213 3.86065 14.95 3.7534L15.8583 3.52673C16.0726 3.47328 16.2993 3.50707 16.4887 3.62066C16.6781 3.73425 16.8146 3.91837 16.8683 4.13257L18.1308 9.18257C18.1845 9.39695 18.1509 9.62388 18.0373 9.81345C17.9236 10.003 17.7394 10.1397 17.525 10.1934L16.6167 10.4201C16.1879 10.5272 15.7341 10.4596 15.3552 10.2323C14.9762 10.0049 14.7031 9.6363 14.5958 9.20757L13.7375 5.77423ZM11.6667 11.6576C11.6667 12.578 10.9205 13.3242 10 13.3242C9.07953 13.3242 8.33334 12.578 8.33334 11.6576C8.33334 10.7371 9.07953 9.9909 10 9.9909C10.9205 9.9909 11.6667 10.7371 11.6667 11.6576Z" stroke="#303030" stroke-linecap="round" stroke-linejoin="round"/>
</svg>
