<svg width="28" height="26" viewBox="0 0 28 26" fill="none" xmlns="http://www.w3.org/2000/svg">
<path d="M-2.67029e-05 9.38047L0.877882 7.85496L4.7781 1.11246L5.26023 0.270546H24.2864L22.1276 4.01238H7.41902L4.32475 9.38047L7.39743 14.7054H13.9242C14.3337 14.1145 14.9223 13.6709 15.6032 13.44C16.284 13.2091 17.0211 13.2032 17.7056 13.423C18.3901 13.6428 18.9858 14.0768 19.4049 14.661C19.824 15.2451 20.0442 15.9485 20.0331 16.6673C20.022 17.3862 19.7802 18.0824 19.3433 18.6534C18.9064 19.2243 18.2976 19.6397 17.6067 19.8384C16.9157 20.037 16.1792 20.0083 15.5058 19.7565C14.8324 19.5048 14.2578 19.0432 13.8666 18.44H5.23145L4.7709 17.6485L1.05058 11.1722L-2.67029e-05 9.38047Z" fill="#8A78FB"/>
<path d="M28 16.6267L27.1221 18.145L23.2219 24.8875L22.7326 25.7295H3.728L5.88679 21.9948H20.581L23.6752 16.6267L20.6025 11.3018H14.0758C13.6674 11.8935 13.0796 12.3382 12.3992 12.5704C11.7188 12.8027 10.9818 12.8101 10.2969 12.5916C9.61195 12.373 9.01538 11.9402 8.59517 11.3569C8.17496 10.7735 7.95337 10.0706 7.96306 9.35171C7.97276 8.63284 8.21324 7.93613 8.64903 7.36434C9.08482 6.79254 9.69284 6.37594 10.3834 6.17598C11.074 5.97602 11.8105 6.0033 12.4844 6.25379C13.1583 6.50427 13.7339 6.96471 14.1262 7.56717H22.7613L23.2219 8.35871L26.9422 14.7918L28 16.6267Z" fill="white"/>
</svg>
